<?xml version="1.0" encoding="UTF-8"?>
<svg id="Favicon" xmlns="http://www.w3.org/2000/svg" viewBox="0 0 500 500">
  <defs>
    <style>
      .cls-1 {
        fill: #f0ece6;
      }

      .cls-2 {
        fill: #ff4d00;
      }
    </style>
  </defs>
  <path class="cls-1" d="M259.09,336.14v-86.57c0-4.86-1.64-9.52-4.93-13.97-3.28-4.45-7.77-8.37-13.47-11.75-5.69-3.38-12.37-6.06-20.04-8.04-7.67-1.98-15.88-2.97-24.64-2.97h-64.17v123.3H42.5v-172.28h152.64c13.87,0,27.3,1.03,40.3,3.09,12.99,2.06,25.15,4.95,36.46,8.66,11.31,3.71,21.61,8.18,30.88,13.42,9.27,5.24,17.22,11.03,23.87,17.38,6.64,6.35,11.79,13.17,15.44,20.47,3.65,7.3,5.47,14.86,5.47,22.69v86.57h-88.47Z"/>
  <path class="cls-2" d="M368.15,284.69h89.35v51.45h-89.35v-51.45Z"/>
</svg>