<?xml version="1.0" encoding="UTF-8"?>
<svg id="Horizontal" xmlns="http://www.w3.org/2000/svg" viewBox="0 0 915 315">
  <defs>
    <style>
      .cls-1 {
        fill: #f0ece6;
      }

      .cls-2 {
        fill: #ff4d00;
      }
    </style>
  </defs>
  <path class="cls-1" d="M175.78,213.41v-51.5c0-2.89-.98-5.66-2.93-8.31s-4.62-4.98-8.01-6.99c-3.39-2.01-7.36-3.6-11.92-4.78s-9.44-1.77-14.66-1.77h-38.17v73.35h-53.15v-102.48h90.8c8.25,0,16.24.61,23.97,1.84,7.73,1.23,14.96,2.94,21.69,5.15,6.73,2.21,12.85,4.87,18.37,7.98,5.51,3.12,10.25,6.56,14.2,10.34,3.95,3.78,7.01,7.84,9.18,12.18,2.17,4.34,3.26,8.84,3.26,13.5v51.5h-52.63Z"/>
  <path class="cls-1" d="M293.55,140.06v1.62c0,5.3,1.26,10.13,3.78,14.49,2.52,4.37,5.77,8.33,9.77,11.88,3.99,3.56,8.51,6.72,13.55,9.49,5.04,2.77,10.16,5.24,15.37,7.39,5.21,2.16,10.27,4.01,15.18,5.55,4.91,1.54,9.23,2.86,12.96,3.94l18.5,5.44-25.4,25.9-18.37-5.3c-6.69-1.91-13.74-4.06-21.17-6.44-7.43-2.38-14.79-5.15-22.08-8.31s-14.27-6.76-20.91-10.78c-6.64-4.02-12.49-8.63-17.52-13.83-5.04-5.2-9.05-11.02-12.05-17.47-3-6.45-4.49-13.67-4.49-21.67v-52.75h52.89v21.7h128.58v29.13h-128.58Z"/>
  <path class="cls-1" d="M556.31,213.41v-51.5c0-2.89-.98-5.66-2.93-8.31-1.95-2.65-4.62-4.98-8.01-6.99-3.39-2.01-7.36-3.6-11.92-4.78-4.56-1.18-9.44-1.77-14.66-1.77h-38.17v73.35h-53.15v-124.19h53.15v21.7h37.65c8.25,0,16.24.61,23.97,1.84,7.73,1.23,14.96,2.94,21.69,5.15,6.73,2.21,12.85,4.87,18.37,7.98,5.51,3.12,10.25,6.56,14.2,10.34,3.95,3.78,7.01,7.84,9.18,12.18,2.17,4.34,3.26,8.84,3.26,13.5v51.5h-52.63Z"/>
  <path class="cls-1" d="M750.03,213.41v-51.5c0-2.89-.98-5.66-2.93-8.31s-4.62-4.98-8.01-6.99c-3.39-2.01-7.36-3.6-11.92-4.78s-9.44-1.77-14.66-1.77h-38.17v73.35h-53.15v-102.48h90.8c8.25,0,16.24.61,23.97,1.84,7.73,1.23,14.96,2.94,21.69,5.15,6.73,2.21,12.85,4.87,18.37,7.98,5.51,3.12,10.25,6.56,14.2,10.34,3.95,3.78,7.01,7.84,9.18,12.18,2.17,4.34,3.26,8.84,3.26,13.5v51.5h-52.63Z"/>
  <path class="cls-2" d="M814.91,182.81h53.15v30.61h-53.15v-30.61Z"/>
</svg>