<?xml version="1.0" encoding="UTF-8"?>
<svg id="Favicon" xmlns="http://www.w3.org/2000/svg" viewBox="0 0 330 500">
  <defs>
    <style>
      .cls-1 {
        fill: #f0ece6;
      }

      .cls-2 {
        fill: #ff4d00;
      }
    </style>
  </defs>
  <path class="cls-1" d="M82.3,126.06l32.47-76c3.01-3.32,7.17-4.69,11.66-4.65l18.11.16c4.45-.17,8.35,1.55,10.59,5.72,6.15,72.14,11.87,143.59,21.55,217.48L266.62,31.16c1.29-3.41,6.68-4.15,9.59-4.63l27.14.29c3.53.04,8,3.93,6.74,7.78l-41.49,127.16c-5.83,17.88-8.94,35.08-9.4,53.95l-1.97,80.99-3.02,112.64c-.07,5.57-1.27,10.24-8.01,10.25l-27.76.03c-5.16,0-8.88-3.94-7.86-9.29l3.2-121.67-27.82,72.46c-1.14,2.97-6.61,4.46-9.27,4.56l-19.34-.02c-3.79-.27-7.04-1.43-9.98-5.06l-29.3-211.85-55,127.21c-2.11,2.8-5.1,3.94-8.57,4.71l-27.66-.29c-4.14-.04-7.45-3.8-7.13-7.76l46.93-110.89,15.66-35.67Z"/>
  <path class="cls-2" d="M243.84,473.47h-22.73c-5.87,0-10.64-4.76-10.64-10.64v-28.02c0-2.95,2.39-5.34,5.34-5.34h33.32c2.95,0,5.34,2.39,5.34,5.34v28.02c0,5.87-4.76,10.64-10.64,10.64Z"/>
</svg>