<?xml version="1.0" encoding="UTF-8"?>
<svg id="Favicon" xmlns="http://www.w3.org/2000/svg" version="1.1" viewBox="0 0 300 300">
  <!-- Generator: Adobe Illustrator 30.4.0, SVG Export Plug-In . SVG Version: 2.1.4 Build 226)  -->
  <defs>
    <style>
      .st0 {
        fill: #f0ece6;
      }

      .st1 {
        fill: #ff4d00;
      }

      .st2 {
        fill: #0e0e0e;
      }
    </style>
  </defs>
  <rect class="st2" width="300" height="300"/>
  <g>
    <path class="st0" d="M103.3,80.1l18.3-42.9c1.7-1.9,4-2.6,6.6-2.6h10.2c2.5,0,4.7,1,6,3.3,3.5,40.7,6.7,81,12.2,122.7L207.3,26.5c.7-1.9,3.8-2.3,5.4-2.6l15.3.2c2,0,4.5,2.2,3.8,4.4l-23.4,71.8c-3.3,10.1-5,19.8-5.3,30.4l-1.1,45.7-1.7,63.6c0,3.1-.7,5.8-4.5,5.8h-15.7c-2.9,0-5-2.2-4.4-5.2l1.8-68.7-15.7,40.9c-.6,1.7-3.7,2.5-5.2,2.6h-10.9c-2.1-.2-4-.8-5.6-2.9l-16.5-119.6-31,71.8c-1.2,1.6-2.9,2.2-4.8,2.7l-15.6-.2c-2.3,0-4.2-2.1-4-4.4l26.5-62.6,8.8-20.1h0Z"/>
    <path class="st1" d="M194.5,276.1h-12.8c-3.3,0-6-2.7-6-6v-15.8c0-1.7,1.3-3,3-3h18.8c1.7,0,3,1.3,3,3v15.8c0,3.3-2.7,6-6,6h0Z"/>
  </g>
</svg>